<?xml version="1.0" standalone="no"?>
<!DOCTYPE svg PUBLIC "-//W3C//DTD SVG 20010904//EN"
 "http://www.w3.org/TR/2001/REC-SVG-20010904/DTD/svg10.dtd">
<svg version="1.0" xmlns="http://www.w3.org/2000/svg"
 width="528.000000pt" height="460.000000pt" viewBox="0 0 528.000000 460.000000"
 preserveAspectRatio="xMidYMid meet">
<metadata>
Created by potrace 1.16, written by Peter Selinger 2001-2019
</metadata>
<g transform="translate(0.000000,460.000000) scale(0.100000,-0.100000)"
fill="#000000" stroke="none">
<path fill="#7CB342" d="M153 4299 c-38 -46 -50 -619 -19 -879 21 -183 64 -399 111 -560 110
-377 284 -708 541 -1030 319 -398 871 -874 1657 -1427 65 -45 123 -83 128 -83
11 0 8 43 -22 284 -56 448 -193 936 -391 1386 -267 607 -682 1170 -1203 1632
-52 45 -92 84 -90 86 9 9 186 -112 330 -227 279 -222 619 -585 787 -838 23
-35 45 -63 48 -63 3 0 6 37 6 83 1 151 70 264 202 329 60 30 76 33 153 33 82
0 91 -2 170 -42 82 -42 83 -43 103 -24 34 30 97 58 162 71 151 30 312 -51 387
-195 30 -56 32 -67 32 -157 -1 -54 3 -98 7 -98 4 0 19 21 32 48 72 141 349
460 600 691 125 114 442 359 537 414 99 58 68 21 -106 -128 -308 -262 -639
-650 -868 -1015 -117 -187 -135 -220 -241 -431 -243 -486 -407 -1042 -476
-1609 -11 -91 -23 -180 -26 -198 -8 -41 6 -41 54 -2 20 16 93 69 162 117 426
295 890 667 1175 943 358 345 572 626 745 975 217 439 320 901 320 1440 0 203
-16 453 -31 469 -5 5 -66 8 -136 7 -553 -8 -1157 -174 -1593 -437 -322 -194
-656 -527 -731 -729 -11 -30 -11 -30 -30 -5 -11 14 -59 81 -107 150 -107 152
-271 321 -432 441 -404 304 -868 480 -1466 558 -212 28 -465 38 -481 20z"/>
<path fill="#FF6B6B" d="M2306 2876 c-21 -8 -54 -29 -73 -48 -128 -121 -87 -314 108 -509 79
-80 277 -239 297 -239 36 0 287 227 369 332 132 172 142 331 26 427 -63 52
-137 64 -231 36 -39 -12 -66 -30 -108 -71 -55 -56 -55 -56 -97 -11 -23 25 -62
55 -87 67 -56 28 -150 36 -204 16z"/>
<path fill="#7CB342" d="M2256 2222 c-4 -6 11 -39 32 -74 56 -93 107 -209 197 -453 55 -147
127 -405 133 -473 2 -34 9 -65 15 -69 14 -9 27 17 27 57 1 146 208 722 346
962 15 27 24 51 20 55 -5 5 -36 -22 -70 -58 -98 -106 -304 -266 -330 -256 -34
13 -220 168 -287 239 -44 46 -79 76 -83 70z"/>
</g>
</svg>
